<svg width="33" height="33" viewBox="0 0 33 33" fill="none" xmlns="http://www.w3.org/2000/svg">
<g id="setting 1">
<path id="Vector" d="M16.1931 30.5208C15.2981 30.5208 14.3898 30.3201 13.6818 29.9052L6.33515 25.6625C3.34304 23.6415 3.15603 23.3337 3.15603 20.1618V12.4259C3.15603 9.25396 3.32968 8.94613 6.26836 6.95195L13.6685 2.66913C15.071 1.85272 17.275 1.85272 18.6776 2.66913L26.051 6.92518C29.0431 8.94613 29.2301 9.25396 29.2301 12.4259V20.1484C29.2301 23.3203 29.0565 23.6282 26.1178 25.6223L18.7177 29.9052C17.9963 30.3201 17.088 30.5208 16.1931 30.5208ZM16.1931 4.07443C15.632 4.07443 15.0844 4.1815 14.697 4.40903L7.35033 8.66507C5.17303 10.1373 5.17303 10.1373 5.17303 12.4259V20.1484C5.17303 22.437 5.17303 22.437 7.40376 23.9494L14.697 28.1653C15.4851 28.6203 16.9144 28.6203 17.7025 28.1653L25.0492 23.9092C27.2131 22.437 27.2131 22.437 27.2131 20.1484V12.4259C27.2131 10.1373 27.2131 10.1373 24.9824 8.62492L17.6891 4.40903C17.3017 4.1815 16.7541 4.07443 16.1931 4.07443Z" fill="#E80000"/>
<path id="Vector_2" d="M16.193 21.313C13.4279 21.313 11.1838 19.0645 11.1838 16.294C11.1838 13.5236 13.4279 11.2751 16.193 11.2751C18.958 11.2751 21.2021 13.5236 21.2021 16.294C21.2021 19.0645 18.958 21.313 16.193 21.313ZM16.193 13.2827C14.5366 13.2827 13.1875 14.6344 13.1875 16.294C13.1875 17.9536 14.5366 19.3054 16.193 19.3054C17.8493 19.3054 19.1984 17.9536 19.1984 16.294C19.1984 14.6344 17.8493 13.2827 16.193 13.2827Z" fill="#E80000"/>
</g>
</svg>
