<svg width="52" height="52" viewBox="0 0 52 52" fill="none" xmlns="http://www.w3.org/2000/svg">
<g id="setting 1">
<path id="Vector" d="M25.8572 48.8566C24.4136 48.8566 22.9484 48.5327 21.8064 47.8634L9.95543 41.0196C5.12884 37.7596 4.82718 37.263 4.82718 32.1463V19.6676C4.82718 14.5509 5.10729 14.0544 9.84769 10.8376L21.7848 3.92894C24.0473 2.61198 27.6026 2.61198 29.865 3.92894L41.7591 10.7944C46.5857 14.0544 46.8874 14.5509 46.8874 19.6676V32.1247C46.8874 37.2414 46.6073 37.738 41.8669 40.9548L29.9297 47.8634C28.7661 48.5327 27.3009 48.8566 25.8572 48.8566ZM25.8572 6.19583C24.9523 6.19583 24.0688 6.36855 23.444 6.73557L11.593 13.601C8.08082 15.9758 8.08082 15.9758 8.08082 19.6676V32.1247C8.08082 35.8165 8.08082 35.8165 11.6792 38.2561L23.444 45.0568C24.7152 45.7909 27.0208 45.7909 28.2921 45.0568L40.1431 38.1914C43.6337 35.8165 43.6337 35.8165 43.6337 32.1247V19.6676C43.6337 15.9758 43.6337 15.9758 40.0353 13.5362L28.2705 6.73557C27.6457 6.36855 26.7622 6.19583 25.8572 6.19583Z" fill="#E80000"/>
<path id="Vector_2" d="M25.8569 34.0032C21.3966 34.0032 17.7767 30.3762 17.7767 25.9072C17.7767 21.4382 21.3966 17.8112 25.8569 17.8112C30.3172 17.8112 33.9371 21.4382 33.9371 25.9072C33.9371 30.3762 30.3172 34.0032 25.8569 34.0032ZM25.8569 21.0496C23.185 21.0496 21.0087 23.2301 21.0087 25.9072C21.0087 28.5843 23.185 30.7648 25.8569 30.7648C28.5287 30.7648 30.705 28.5843 30.705 25.9072C30.705 23.2301 28.5287 21.0496 25.8569 21.0496Z" fill="#E80000"/>
</g>
</svg>
